<svg width="800" height="800" viewBox="0 0 800 800" fill="none" xmlns="http://www.w3.org/2000/svg">
<path d="M662.5 300C662.508 252.442 649.595 205.774 625.142 164.984C600.688 124.194 565.613 90.814 523.662 68.4095C481.712 46.005 434.463 35.4183 386.963 37.7803C339.463 40.1423 293.498 55.3644 253.977 81.8201C214.456 108.276 182.865 144.971 162.579 187.986C142.292 231.001 134.073 278.719 138.799 326.042C143.525 373.365 161.019 418.515 189.411 456.668C217.804 494.822 256.028 524.545 300 542.662V625H500V542.662C548.073 522.855 589.182 489.218 618.112 446.016C647.042 402.814 662.491 351.994 662.5 300Z" fill="#E5E6EB"/>
<path d="M505.488 59.725C550.396 102.224 578.847 159.223 585.816 220.659C592.785 282.096 577.825 344.019 543.577 395.498C509.328 446.976 457.994 484.7 398.636 502.009C339.278 519.319 275.713 515.101 219.163 490.1C242.633 512.461 270.041 530.282 300 542.662V625H500V542.662C547.606 523.06 588.393 489.887 617.283 447.273C646.173 404.659 661.889 354.489 662.474 303.009C663.058 251.529 648.487 201.014 620.572 157.755C592.658 114.496 552.635 80.4041 505.488 59.725Z" fill="#D9DAE2"/>
<path d="M312.5 675V712.5C312.5 725.761 317.768 738.479 327.145 747.855C336.521 757.232 349.239 762.5 362.5 762.5H437.5C450.761 762.5 463.479 757.232 472.855 747.855C482.232 738.479 487.5 725.761 487.5 712.5V675H312.5Z" fill="#1DE9B6"/>
<path d="M500 612.5H300V712.5H500V612.5Z" fill="#1DE9B6"/>
<path d="M491.05 272.5C488.362 266.025 486.487 261.5 483.812 255L490.612 228.5L471.437 209.325L445 216.25L427.5 209.013L413.587 185.488H386.462L372.5 208.95L355 216.188L328.5 209.388L309.325 228.563L316.125 255.063L308.887 272.563L285.362 286.475V313.6L308.95 327.5C311.637 333.975 313.512 338.5 316.187 345L309.387 371.5L328.562 390.675L355.062 383.875C361.537 386.55 368.525 397.375 375 400.125V612.5H425V400C431.475 397.313 438.462 386.488 444.937 383.75L471.437 390.55L490.612 371.375L483.812 344.875L491.05 327.375L514.575 313.463V286.338L491.05 272.5ZM400 337.5C392.583 337.5 385.333 335.301 379.166 331.18C372.999 327.06 368.193 321.203 365.354 314.351C362.516 307.498 361.773 299.958 363.22 292.684C364.667 285.41 368.239 278.728 373.483 273.484C378.728 268.239 385.41 264.668 392.684 263.221C399.958 261.774 407.498 262.516 414.35 265.355C421.203 268.193 427.059 272.999 431.18 279.166C435.3 285.333 437.5 292.583 437.5 300C437.5 309.946 433.549 319.484 426.516 326.517C419.484 333.549 409.945 337.5 400 337.5Z" fill="#1DE9B6"/>
<path d="M475 612.5V650H300V675H475V712.5H500V612.5H475Z" fill="#090909"/>
<path d="M287.5 150L312.5 125H287.5V100L262.5 125H237.5V150L212.5 175H237.5V200L262.5 175H287.5V150Z" fill="white"/>
<path d="M400 25C337.07 25.0182 276.05 46.619 227.125 86.1972C178.199 125.775 144.328 180.936 131.164 242.474C118 304.011 126.339 368.202 154.791 424.333C183.243 480.463 230.085 525.138 287.5 550.9V712.5C287.5 715.815 288.817 718.995 291.161 721.339C293.505 723.683 296.685 725 300 725H301.25C304.151 739.107 311.827 751.783 322.984 760.891C334.141 769.999 348.097 774.982 362.5 775H437.5C451.902 774.982 465.858 769.999 477.015 760.891C488.173 751.783 495.849 739.107 498.75 725H500C503.315 725 506.494 723.683 508.839 721.339C511.183 718.995 512.5 715.815 512.5 712.5V550.9C569.915 525.138 616.757 480.463 645.208 424.333C673.66 368.202 682 304.011 668.836 242.474C655.672 180.936 621.8 125.775 572.875 86.1972C523.949 46.619 462.929 25.0182 400 25ZM487.5 700H312.5V675H462.5V650H312.5V625H487.5V700ZM437.5 750H362.5C354.772 749.968 347.242 747.549 340.941 743.074C334.64 738.599 329.876 732.286 327.3 725H472.7C470.124 732.286 465.359 738.599 459.059 743.074C452.758 747.549 445.228 749.968 437.5 750ZM495.225 531.112C492.937 532.058 490.981 533.662 489.606 535.72C488.231 537.779 487.498 540.199 487.5 542.675V600H312.5V542.675C312.502 540.199 311.769 537.779 310.393 535.72C309.018 533.662 307.063 532.058 304.775 531.112C251.258 509.066 207.049 469.133 179.69 418.127C152.332 367.12 143.519 308.201 154.757 251.422C165.994 194.644 196.584 143.523 241.308 106.782C286.033 70.0419 342.12 49.9584 400 49.9584C457.88 49.9584 513.967 70.0419 558.691 106.782C603.416 143.523 634.006 194.644 645.243 251.422C656.48 308.201 647.668 367.12 620.309 418.127C592.951 469.133 548.742 509.066 495.225 531.112Z" fill="black"/>
</svg>
