<svg width="800" height="800" viewBox="0 0 800 800" fill="none" xmlns="http://www.w3.org/2000/svg">
<path d="M464.949 359.76H574.89C577.377 359.76 579.761 358.772 581.519 357.014C583.278 355.256 584.265 352.871 584.265 350.385C584.265 347.898 583.278 345.514 581.519 343.756C579.761 341.998 577.377 341.01 574.89 341.01H464.949C462.462 341.01 460.078 341.998 458.32 343.756C456.561 345.514 455.574 347.898 455.574 350.385C455.574 352.871 456.561 355.256 458.32 357.014C460.078 358.772 462.462 359.76 464.949 359.76Z" fill="#1DE9B6"/>
<path d="M464.949 396.871H527.257C529.743 396.871 532.127 395.883 533.886 394.125C535.644 392.367 536.632 389.982 536.632 387.496C536.632 385.009 535.644 382.625 533.886 380.867C532.127 379.109 529.743 378.121 527.257 378.121H464.949C462.462 378.121 460.078 379.109 458.32 380.867C456.561 382.625 455.574 385.009 455.574 387.496C455.574 389.982 456.561 392.367 458.32 394.125C460.078 395.883 462.462 396.871 464.949 396.871Z" fill="#1DE9B6"/>
<path d="M421.413 580.9L421.448 580.455C422.91 552.42 414.162 528.622 395.447 509.726C349.936 463.773 258.919 461.16 233.649 461.356C230.59 461.38 224.648 461.383 221.732 461.358C196.833 461.141 105.343 463.611 59.673 509.726C41.0011 528.578 32.2511 552.308 33.6628 580.257C33.7116 585.231 34.5875 687.836 24.4527 742.333C23.7359 746.254 23.8906 750.285 24.9058 754.14C25.921 757.995 27.7718 761.579 30.327 764.639C32.8822 767.699 36.0792 770.159 39.6914 771.845C43.3036 773.531 47.2425 774.402 51.2288 774.395H406.986C410.919 774.397 414.806 773.545 418.377 771.898C421.949 770.251 425.12 767.848 427.672 764.855C430.225 761.863 432.097 758.352 433.159 754.565C434.221 750.778 434.449 746.805 433.826 742.922C428.524 709.893 416.697 627.99 421.413 580.9ZM233.136 480.135C247.096 480.099 261.047 480.845 274.923 482.369C260.604 522.391 233.054 539.929 223.241 545.098C213.466 539.963 186.312 522.67 171.904 483.385C186.764 481.422 201.727 480.343 216.715 480.153C218.031 480.137 229.93 480.154 233.136 480.135ZM44.6766 752.569C43.8901 751.639 43.3211 750.545 43.0112 749.367C42.7013 748.189 42.6582 746.956 42.8852 745.759C53.5557 688.389 52.4616 584.26 52.4097 579.857L52.3975 579.478C51.2042 556.63 57.935 538.138 72.9725 522.943C92.8524 502.853 123.995 492.141 153.103 486.453C166.203 524.941 190.274 546.181 205.632 556.367C208.164 558.047 210.241 560.329 211.677 563.007C213.112 565.686 213.862 568.678 213.86 571.717V755.645H124.171C129.457 723.742 131.252 691.359 129.526 659.067C129.324 656.598 128.152 654.31 126.267 652.702C124.382 651.095 121.937 650.298 119.467 650.488C116.997 650.677 114.702 651.836 113.084 653.712C111.466 655.587 110.656 658.027 110.831 660.498C112.407 692.326 110.501 724.231 105.148 755.645H51.2288C49.9776 755.646 48.7415 755.371 47.6089 754.839C46.4763 754.308 45.475 753.533 44.6766 752.569ZM413.411 752.681C412.623 753.616 411.639 754.367 410.529 754.879C409.418 755.391 408.208 755.653 406.986 755.645H351.234C345.881 724.232 343.975 692.327 345.55 660.499C345.725 658.028 344.915 655.588 343.297 653.712C341.679 651.836 339.384 650.677 336.914 650.488C334.444 650.299 332 651.095 330.115 652.703C328.23 654.311 327.058 656.599 326.855 659.068C325.129 691.36 326.925 723.743 332.21 755.646H232.61V571.717C232.606 568.681 233.354 565.692 234.786 563.015C236.219 560.338 238.292 558.058 240.821 556.378C256.373 546.064 280.875 524.405 293.865 484.976C325.167 490.206 360.398 500.965 382.148 522.943C397.138 538.089 403.873 556.515 402.735 579.263C398.03 626.791 408.593 704.036 415.314 745.893C415.514 747.095 415.447 748.326 415.118 749.499C414.79 750.672 414.206 751.758 413.411 752.681Z" fill="#1DE9B6"/>
<path d="M223.444 284.462C176.803 284.462 138.858 320.432 138.858 364.644C138.858 408.857 176.804 444.827 223.444 444.827C270.084 444.827 308.03 408.857 308.03 364.644C308.03 320.431 270.084 284.462 223.444 284.462ZM223.444 426.077C187.142 426.077 157.608 398.518 157.608 364.644C157.608 330.771 187.142 303.212 223.444 303.212C259.746 303.212 289.28 330.771 289.28 364.644C289.28 398.518 259.746 426.077 223.444 426.077Z" fill="#1DE9B6"/>
<path d="M245.89 379.618H200.998C199.74 379.619 198.499 379.918 197.378 380.489C196.257 381.061 195.287 381.889 194.547 382.907C193.806 383.925 193.317 385.103 193.119 386.345C192.92 387.588 193.018 388.86 193.404 390.058C196.322 399.204 203.877 411.047 223.444 411.047C243.01 411.047 250.566 399.203 253.484 390.057C253.87 388.86 253.968 387.588 253.769 386.345C253.571 385.103 253.081 383.925 252.341 382.907C251.601 381.89 250.631 381.061 249.51 380.49C248.389 379.918 247.149 379.619 245.89 379.618Z" fill="#1DE9B6"/>
<path d="M267.5 646.227C264.784 646.227 262.129 647.032 259.87 648.541C257.612 650.05 255.852 652.195 254.812 654.704C253.773 657.213 253.501 659.974 254.03 662.638C254.56 665.302 255.868 667.749 257.788 669.669C259.709 671.59 262.156 672.898 264.819 673.428C267.483 673.958 270.244 673.686 272.754 672.646C275.263 671.607 277.408 669.847 278.917 667.589C280.426 665.331 281.231 662.675 281.231 659.959C281.231 656.318 279.784 652.825 277.209 650.25C274.634 647.674 271.142 646.228 267.5 646.227Z" fill="#1DE9B6"/>
<path d="M267.5 693.408C264.784 693.408 262.129 694.213 259.87 695.722C257.612 697.23 255.852 699.375 254.812 701.884C253.773 704.393 253.501 707.154 254.03 709.818C254.56 712.482 255.868 714.929 257.788 716.85C259.709 718.77 262.156 720.078 264.819 720.608C267.483 721.138 270.244 720.866 272.754 719.827C275.263 718.788 277.408 717.027 278.917 714.769C280.426 712.511 281.231 709.856 281.231 707.14C281.231 703.498 279.784 700.005 277.209 697.43C274.634 694.855 271.142 693.408 267.5 693.408Z" fill="#1DE9B6"/>
<path d="M329.592 572.637H292.922C291.915 572.637 290.917 572.835 289.986 573.221C289.055 573.606 288.209 574.171 287.497 574.884C286.784 575.596 286.219 576.442 285.834 577.373C285.448 578.304 285.25 579.301 285.25 580.309V598.644C285.25 605.542 287.99 612.157 292.867 617.034C297.744 621.912 304.36 624.652 311.257 624.652C318.155 624.652 324.77 621.912 329.648 617.034C334.525 612.157 337.265 605.542 337.265 598.644V580.31C337.265 579.302 337.067 578.304 336.681 577.373C336.296 576.442 335.73 575.596 335.018 574.884C334.305 574.171 333.459 573.606 332.528 573.221C331.597 572.835 330.599 572.637 329.592 572.637Z" fill="#1DE9B6"/>
<path d="M369.252 442.466C369.094 442.183 369.027 441.858 369.06 441.536C369.093 441.213 369.224 440.909 369.435 440.663L404.236 395.661C408.986 389.498 411.568 381.939 411.582 374.157V212.272C411.582 209.786 410.594 207.401 408.836 205.643C407.078 203.885 404.693 202.897 402.207 202.897C399.72 202.897 397.336 203.885 395.577 205.643C393.819 207.401 392.832 209.786 392.832 212.272V374.157C392.825 377.788 391.62 381.315 389.405 384.191L354.604 429.193C352.263 432.219 350.817 435.841 350.432 439.648C350.046 443.454 350.735 447.293 352.42 450.728C354.106 454.162 356.721 457.056 359.968 459.079C363.216 461.102 366.965 462.175 370.791 462.175H615.152C617.639 462.175 620.023 461.187 621.781 459.429C623.539 457.671 624.527 455.286 624.527 452.8C624.527 450.313 623.539 447.929 621.781 446.17C620.023 444.412 617.639 443.425 615.152 443.425H370.792C370.468 443.441 370.147 443.359 369.872 443.187C369.596 443.016 369.38 442.764 369.252 442.466Z" fill="#1DE9B6"/>
<path d="M740.852 25.6047H427.984C418.664 25.6152 409.729 29.3222 403.139 35.9123C396.549 42.5023 392.842 51.4374 392.832 60.7571V129.172C392.832 131.658 393.82 134.043 395.578 135.801C397.336 137.559 399.721 138.547 402.207 138.547C404.693 138.547 407.078 137.559 408.836 135.801C410.594 134.043 411.582 131.658 411.582 129.172V60.7571C411.587 56.4085 413.316 52.2393 416.391 49.1643C419.466 46.0894 423.635 44.3597 427.984 44.3547H740.852C745.201 44.3597 749.37 46.0894 752.445 49.1643C755.52 52.2393 757.249 56.4085 757.254 60.7571V427.023C757.249 431.371 755.52 435.54 752.445 438.615C749.37 441.69 745.201 443.419 740.852 443.424H719.083C716.596 443.424 714.212 444.412 712.454 446.17C710.696 447.928 709.708 450.313 709.708 452.799C709.708 455.286 710.696 457.67 712.454 459.428C714.212 461.187 716.596 462.174 719.083 462.174H740.852C750.172 462.164 759.107 458.457 765.697 451.867C772.287 445.277 775.994 436.342 776.004 427.023V60.7571C775.994 51.4374 772.287 42.5023 765.697 35.9123C759.107 29.3222 750.172 25.6152 740.852 25.6047Z" fill="#1DE9B6"/>
<path d="M143.586 236.155H283.982C292.829 236.145 301.311 232.626 307.566 226.37C313.822 220.115 317.341 211.633 317.351 202.787V179.287H432.833C435.32 179.287 437.704 178.299 439.463 176.541C441.221 174.783 442.208 172.398 442.208 169.912C442.208 167.425 441.221 165.041 439.463 163.282C437.704 161.524 435.32 160.537 432.833 160.537H317.351V128.722C317.341 119.875 313.822 111.393 307.567 105.138C301.311 98.8821 292.829 95.3632 283.982 95.3533H143.586C134.739 95.3632 126.257 98.882 120.001 105.138C113.746 111.393 110.227 119.875 110.217 128.722V202.787C110.227 211.633 113.746 220.115 120.002 226.37C126.257 232.626 134.739 236.145 143.586 236.155ZM128.967 128.722C128.971 124.846 130.513 121.131 133.254 118.39C135.994 115.649 139.71 114.108 143.586 114.103H283.982C287.858 114.108 291.574 115.649 294.314 118.39C297.055 121.131 298.597 124.846 298.601 128.722V202.787C298.597 206.662 297.055 210.378 294.314 213.118C291.574 215.859 287.858 217.4 283.982 217.405H143.586C139.71 217.4 135.994 215.859 133.254 213.118C130.513 210.378 128.971 206.662 128.967 202.787V128.722Z" fill="#1DE9B6"/>
<path d="M161.614 155.734H266.087C268.573 155.734 270.958 154.747 272.716 152.989C274.474 151.23 275.462 148.846 275.462 146.359C275.462 143.873 274.474 141.488 272.716 139.73C270.958 137.972 268.573 136.984 266.087 136.984H161.614C159.128 136.984 156.743 137.972 154.985 139.73C153.227 141.488 152.239 143.873 152.239 146.359C152.239 148.846 153.227 151.23 154.985 152.989C156.743 154.747 159.128 155.734 161.614 155.734Z" fill="#1DE9B6"/>
<path d="M161.614 188.576H213.785C216.271 188.576 218.656 187.588 220.414 185.83C222.172 184.072 223.16 181.688 223.16 179.201C223.16 176.715 222.172 174.33 220.414 172.572C218.656 170.814 216.271 169.826 213.785 169.826H161.614C159.128 169.826 156.743 170.814 154.985 172.572C153.227 174.33 152.239 176.715 152.239 179.201C152.239 181.688 153.227 184.072 154.985 185.83C156.743 187.588 159.128 188.576 161.614 188.576Z" fill="#1DE9B6"/>
<path d="M707.588 535.115H693.902C693.924 534.852 693.942 534.588 693.942 534.32V470.59C693.924 465.241 692.692 459.965 690.338 455.162C687.983 450.358 684.569 446.152 680.351 442.862L643.134 414.016C642.161 413.26 641.049 412.704 639.86 412.378C638.672 412.052 637.432 411.964 636.209 412.119C634.987 412.273 633.807 412.666 632.737 413.277C631.667 413.887 630.728 414.703 629.974 415.676C629.219 416.65 628.663 417.763 628.339 418.951C628.015 420.14 627.928 421.38 628.083 422.602C628.239 423.825 628.633 425.004 629.245 426.073C629.856 427.143 630.673 428.081 631.647 428.835L668.865 457.682C670.828 459.214 672.418 461.172 673.514 463.408C674.61 465.644 675.184 468.1 675.192 470.591V534.32C675.192 534.589 675.21 534.853 675.232 535.116H600.249C591.402 535.125 582.921 538.644 576.665 544.9C570.409 551.156 566.89 559.637 566.88 568.484V642.549C566.891 651.396 570.41 659.877 576.665 666.133C582.921 672.388 591.403 675.907 600.249 675.917H707.588C716.435 675.907 724.917 672.388 731.172 666.133C737.428 659.877 740.947 651.396 740.957 642.549V568.484C740.947 559.637 737.429 551.155 731.173 544.9C724.917 538.644 716.436 535.125 707.588 535.115ZM722.207 642.549C722.202 646.424 720.661 650.14 717.92 652.88C715.18 655.621 711.464 657.162 707.588 657.167H600.249C596.374 657.162 592.658 655.621 589.918 652.88C587.177 650.14 585.635 646.424 585.631 642.549V568.484C585.635 564.609 587.177 560.893 589.917 558.152C592.658 555.411 596.374 553.87 600.249 553.865H707.588C711.464 553.87 715.18 555.411 717.921 558.152C720.661 560.893 722.203 564.609 722.207 568.484V642.549Z" fill="#1DE9B6"/>
<path d="M689.692 576.745H618.277C615.791 576.745 613.406 577.733 611.648 579.491C609.89 581.249 608.902 583.634 608.902 586.12C608.902 588.607 609.89 590.991 611.648 592.749C613.406 594.507 615.791 595.495 618.277 595.495H689.692C692.179 595.495 694.563 594.507 696.321 592.749C698.08 590.991 699.067 588.607 699.067 586.12C699.067 583.634 698.08 581.249 696.321 579.491C694.563 577.733 692.179 576.745 689.692 576.745Z" fill="#1DE9B6"/>
<path d="M660.979 609.588H618.277C615.791 609.588 613.406 610.576 611.648 612.334C609.89 614.092 608.902 616.477 608.902 618.963C608.902 621.45 609.89 623.834 611.648 625.593C613.406 627.351 615.791 628.338 618.277 628.338H660.979C663.465 628.338 665.85 627.351 667.608 625.593C669.366 623.834 670.354 621.45 670.354 618.963C670.354 616.477 669.366 614.092 667.608 612.334C665.85 610.576 663.465 609.588 660.979 609.588Z" fill="#1DE9B6"/>
<path d="M716.034 254.482L645.816 201.025C639.122 195.932 630.767 193.127 622.289 193.127H567.049C564.143 193.127 561.28 192.166 558.987 190.421L488.774 136.968C486.119 134.944 482.816 134.054 479.474 134.464C478.185 134.622 476.953 134.97 475.803 135.483L471.721 126.97C472.733 126.182 473.629 125.242 474.367 124.158C476.233 121.418 476.897 118.131 476.237 114.902L471.949 93.9177C471.288 90.6813 469.381 87.8924 466.579 86.0662C463.782 84.2431 460.424 83.5968 457.13 84.2457C453.83 84.8905 450.985 86.755 449.118 89.4956C447.253 92.2357 446.589 95.523 447.249 98.7515L451.537 119.736C452.71 125.48 457.9 129.65 463.879 129.65C463.96 129.65 464.04 129.646 464.122 129.644L469.713 141.303C467.164 146.429 468.528 152.791 473.305 156.429L543.523 209.886C550.216 214.979 558.572 217.785 567.049 217.785H567.066V268.673H498.191C491.245 268.673 485.595 274.203 485.595 281.001V289.395C485.595 291.568 487.395 293.33 489.615 293.33H626.829C629.049 293.33 630.849 291.568 630.849 289.395V281.001C630.849 274.203 625.199 268.673 618.253 268.673H617.985V217.785H622.29C625.196 217.785 628.058 218.746 630.351 220.49L700.566 273.944C702.797 275.643 705.47 276.542 708.294 276.542C712.214 276.542 715.84 274.807 718.242 271.783C722.505 266.417 721.515 258.657 716.034 254.482ZM459.42 118.193L455.132 97.2076C454.894 96.0398 455.133 94.851 455.808 93.8605C456.482 92.87 457.512 92.1959 458.711 91.9614C459.014 91.9016 459.319 91.8722 459.621 91.8722C460.506 91.8722 461.371 92.1256 462.123 92.6156C463.136 93.2761 463.826 94.286 464.066 95.4601L468.354 116.445C468.592 117.613 468.353 118.802 467.678 119.793C467.163 120.549 466.441 121.118 465.593 121.451C465.386 121.497 465.182 121.562 464.98 121.641C464.909 121.659 464.84 121.679 464.768 121.693C464.477 121.751 464.177 121.781 463.878 121.781C461.72 121.78 459.845 120.272 459.42 118.193ZM609.945 268.672H605.389C603.169 268.672 601.37 270.434 601.37 272.607C601.37 274.78 603.169 276.542 605.389 276.542H618.253C620.765 276.542 622.809 278.542 622.809 281.001V285.46H493.634V281.001C493.634 278.542 495.678 276.542 498.19 276.542H588.237C590.457 276.542 592.257 274.78 592.257 272.607C592.257 270.434 590.457 268.672 588.237 268.672H575.105V217.784H609.945V268.672ZM711.895 266.952C711.027 268.045 709.714 268.672 708.293 268.672C707.274 268.672 706.309 268.348 705.502 267.733L635.287 214.278C631.59 211.464 626.974 209.915 622.289 209.915H567.049C560.349 209.915 553.747 207.698 548.458 203.674L478.242 150.218C476.259 148.708 475.9 145.9 477.442 143.96C478.19 143.02 479.266 142.42 480.475 142.272C480.667 142.248 480.859 142.237 481.05 142.237C482.056 142.237 483.028 142.562 483.836 143.178L554.051 196.632C557.748 199.446 562.364 200.996 567.049 200.996H622.29C628.989 200.996 635.592 203.213 640.881 207.237L711.097 260.693C713.08 262.203 713.438 265.01 711.895 266.952Z" fill="#1DE9B6"/>
</svg>
