<svg width="590" height="720" viewBox="0 0 590 720" fill="none" xmlns="http://www.w3.org/2000/svg">
<path fill-rule="evenodd" clip-rule="evenodd" d="M392.067 122.97C389.6 120.483 386.165 118.964 382.37 118.964C378.572 118.964 375.159 120.484 372.669 122.97C370.183 125.458 368.664 128.872 368.664 132.669C368.664 136.338 370.098 139.667 372.439 142.155L372.669 142.366C374.948 144.644 378.005 146.119 381.422 146.328C381.715 146.289 382.051 146.245 382.37 146.245C382.686 146.245 383 146.288 383.317 146.328C386.733 146.119 389.789 144.644 392.067 142.366C394.533 139.877 396.073 136.463 396.073 132.669C396.075 128.872 394.533 125.458 392.067 122.97ZM314.944 246.306C312.456 243.859 309.042 242.3 305.247 242.3C301.451 242.3 298.016 243.82 295.548 246.306C293.061 248.794 291.52 252.209 291.52 256.005C291.52 259.673 292.976 263.045 295.314 265.491L295.547 265.703C297.992 268.147 301.345 269.667 305.055 269.708H305.095H305.244H305.369H305.412C309.122 269.669 312.494 268.148 314.922 265.703C317.408 263.213 318.945 259.798 318.945 256.005C318.948 252.211 317.411 248.794 314.944 246.306ZM433.686 332.663C431.219 330.219 427.783 328.658 423.989 328.658C420.212 328.658 416.778 330.219 414.291 332.663C411.8 335.152 410.286 338.609 410.286 342.363C410.286 346.073 411.719 349.403 414.058 351.848L414.291 352.059C416.736 354.505 420.109 356.023 423.819 356.066H423.862H423.989H424.114H424.155C427.867 356.023 431.239 354.505 433.686 352.059C436.153 349.572 437.69 346.158 437.69 342.363C437.69 338.609 436.153 335.152 433.686 332.663ZM212.247 374.789C209.739 372.298 206.303 370.783 202.53 370.783C198.861 370.783 195.508 372.217 193.041 374.534L192.83 374.789C190.344 377.277 188.825 380.691 188.825 384.486C188.825 388.281 190.344 391.695 192.83 394.186C195.275 396.63 198.651 398.147 202.361 398.191H202.401H202.531H202.658H202.698C206.408 398.148 209.783 396.631 212.23 394.186C214.695 391.695 216.234 388.281 216.234 384.486C216.234 380.691 214.714 377.277 212.247 374.789ZM143.242 233.739C151.845 233.739 159.52 237.198 165.191 242.891C170.862 248.583 174.342 256.256 174.342 264.859C174.342 273.461 170.862 281.303 165.191 286.995L165.001 287.164C159.35 292.647 151.656 296.147 143.242 296.147C134.642 296.147 126.778 292.647 121.297 286.995C115.625 281.303 112.145 273.461 112.145 264.859C112.145 256.256 115.625 248.583 121.297 242.891C126.776 237.198 134.641 233.739 143.242 233.739ZM202.53 360.325C209.106 360.325 215.136 363.066 219.52 367.452C223.908 371.88 226.647 377.908 226.647 384.486C226.647 391.064 223.908 397.094 219.52 401.48C216.422 404.598 212.205 406.961 207.63 408.098V460.048L262.342 554.628V183.984C262.342 181.077 264.514 178.881 267.464 178.881C270.376 178.881 272.567 181.075 272.567 183.984V446.516L300.017 399.12V279.492C295.442 278.564 291.417 276.203 288.126 273.083L287.937 272.702C283.742 268.316 281.17 262.456 281.17 256.048C281.17 249.469 283.909 243.441 288.126 239.053C292.514 234.667 298.542 231.927 305.33 231.927C311.908 231.927 317.936 234.667 322.155 239.053C326.542 243.27 329.281 249.302 329.281 256.048C329.281 262.667 326.542 268.698 322.325 273.083C319.036 276.202 315.03 278.564 310.434 279.492V400.383C310.434 401.48 310.076 402.408 309.528 403.336L272.569 467.175V658.528H377.225V316.809L326.542 229.188C325.994 228.43 325.634 227.331 325.634 226.236V115.591C325.634 112.808 328.017 110.445 330.926 110.445C333.689 110.445 336.05 112.808 336.05 115.591V224.97L377.225 296.148V156.198C372.651 155.269 368.623 152.909 365.334 149.789L364.956 149.408C360.928 145.022 358.378 139.163 358.378 132.583C358.378 126.006 360.928 119.975 365.334 115.758C369.722 111.372 375.751 108.631 382.328 108.631C388.928 108.631 394.956 111.372 399.345 115.589C403.75 119.973 406.489 126.005 406.489 132.581C406.489 139.328 403.75 145.4 399.345 149.788C396.244 152.906 392.026 155.267 387.642 156.197V557.706L418.739 526.419V365.806C414.164 364.923 410.139 362.519 407.039 359.439L406.681 359.061C402.464 354.675 399.912 348.814 399.912 342.405C399.912 335.827 402.653 329.798 407.039 325.413C411.425 321.027 417.287 318.244 424.055 318.244C430.633 318.244 436.683 321.027 441.067 325.413C445.456 329.798 448.003 335.827 448.003 342.405C448.003 348.984 445.455 355.011 441.067 359.439C437.759 362.519 433.751 364.923 429.178 365.806V528.653C429.178 530.087 428.631 531.394 427.701 532.28L387.644 572.339V658.528H457.156L468.308 478.517C469.428 461.484 471.976 446.133 475.644 433.694C479.483 420.159 484.795 409.533 490.637 403.334C534.362 355.77 559.789 297.411 562.17 240.15C564.364 186.177 546.422 132.961 504.17 89.7844C464.472 49.3453 407.398 27.7578 348.683 24.3C287.583 20.6313 224.461 36.3594 177.273 70.3875C81.7686 138.991 82.5249 213.416 83.0546 266.123C83.2436 290.073 83.4108 309.848 74.8311 323.555C67.1358 336.205 57.0999 347.166 48.3077 356.866C38.6093 367.661 30.1983 376.811 28.9124 383.389C27.6265 389.25 34.2046 394.353 55.2452 398.57L57.8171 399.119C60.1999 399.495 61.4858 399.834 64.228 400.93H64.5874C81.2218 407.72 79.2171 428.38 77.0233 451.616C76.1186 460.216 75.189 469.536 75.3811 477.969C75.7374 500.105 83.4124 518.953 120.561 518.406C126.422 518.195 132.284 517.856 137.766 517.478C159.903 516.003 177.656 514.737 193.005 532.108C196.484 536.114 199.412 543.073 201.228 552.055C202.703 559.898 203.611 569.427 203.251 580.222L200.32 658.525H262.348V573.811C261.611 573.431 260.873 572.884 260.514 571.998L198.319 464.431C197.77 463.503 197.389 462.575 197.389 461.311V408.095C192.834 406.956 188.619 404.764 185.498 401.477C181.114 397.091 178.372 391.061 178.372 384.483C178.372 377.905 181.114 371.877 185.498 367.448L185.88 367.111C190.258 362.897 196.12 360.325 202.53 360.325ZM21.4452 693.187C18.578 693.187 16.2577 690.869 16.2577 688.002C16.2577 685.133 18.578 682.814 21.4452 682.814H413.508C416.353 682.814 418.673 685.133 418.673 688.002C418.673 690.869 416.355 693.187 413.508 693.187H21.4452ZM251.022 719.373C248.155 719.373 245.834 717.053 245.834 714.187C245.834 711.319 248.155 709 251.022 709H522.319C525.164 709 527.506 711.319 527.506 714.187C527.506 717.053 525.164 719.373 522.319 719.373H251.022ZM550.086 719.373C547.24 719.373 544.901 717.053 544.901 714.187C544.901 711.319 547.24 709 550.086 709H584.011C586.856 709 589.195 711.319 589.195 714.187C589.195 717.053 586.856 719.373 584.011 719.373H550.086ZM5.99052 717.939C3.12489 717.939 0.806152 715.62 0.806152 712.753C0.806152 709.884 3.12489 707.567 5.99052 707.567H134.556C137.423 707.567 139.744 709.884 139.744 712.753C139.744 715.62 137.423 717.939 134.556 717.939H5.99052ZM57.7936 311.495C56.2968 313.942 53.1108 314.7 50.6874 313.183C48.264 311.708 47.5265 308.502 49.0015 306.1C55.9999 294.798 55.8108 276.455 55.6218 254.108C55.1155 199.292 54.378 121.62 154.206 49.8532C179.086 31.975 207.759 18.8594 238.053 10.6813C269.069 2.33128 301.892 -0.873408 334.194 1.27659C337.039 1.44534 339.189 3.93284 339 6.75784C338.811 9.62503 336.344 11.7766 333.498 11.6078C302.359 9.49847 270.692 12.6188 240.731 20.6735C211.553 28.5578 184.017 41.1235 160.258 58.2032C64.7499 126.892 65.4468 201.444 65.9311 254.022C66.1608 278.016 66.3311 297.664 57.7936 311.495ZM157.959 250.186C154.166 246.434 148.976 244.114 143.242 244.114C137.509 244.114 132.303 246.433 128.528 250.186C124.775 253.939 122.458 259.167 122.458 264.902C122.458 270.638 124.775 275.823 128.528 279.617C132.303 283.37 137.511 285.691 143.242 285.691C148.851 285.691 153.955 283.455 157.705 279.87L157.937 279.617C161.691 275.823 164.03 270.638 164.03 264.902C164.03 259.167 161.712 253.98 157.959 250.186Z" fill="#1DE9B6"/>
</svg>
