<svg width="614" height="193" viewBox="0 0 614 193" fill="none" xmlns="http://www.w3.org/2000/svg">
<path d="M200 0H0V180H200V0Z" fill="white"/>
<path d="M170 34H100H30V55.6867H170V34Z" fill="#333333"/>
<path d="M170 77.3735H30V99.0603H170V77.3735Z" fill="#333333"/>
<path d="M170 123.723H30V145.41H170V123.723Z" fill="#333333"/>
<path d="M565.946 98.2728L580.612 123.06H581.18L595.917 98.2728H613.282L591.088 134.636L613.78 171H596.095L581.18 146.178H580.612L565.697 171H548.083L570.846 134.636L548.51 98.2728H565.946Z" fill="white"/>
<path d="M538.877 98.2728V171H523.501V98.2728H538.877Z" fill="white"/>
<path d="M510.797 98.2728V171H497.516L465.875 125.226H465.342V171H449.966V98.2728H463.46L494.852 144.011H495.491V98.2728H510.797Z" fill="white"/>
<path d="M438.575 134.636C438.575 142.567 437.072 149.314 434.065 154.878C431.082 160.441 427.011 164.691 421.85 167.626C416.712 170.538 410.936 171.994 404.52 171.994C398.057 171.994 392.257 170.527 387.119 167.591C381.982 164.655 377.922 160.406 374.939 154.842C371.956 149.279 370.465 142.544 370.465 134.636C370.465 126.706 371.956 119.958 374.939 114.395C377.922 108.831 381.982 104.594 387.119 101.682C392.257 98.7462 398.057 97.2784 404.52 97.2784C410.936 97.2784 416.712 98.7462 421.85 101.682C427.011 104.594 431.082 108.831 434.065 114.395C437.072 119.958 438.575 126.706 438.575 134.636ZM422.986 134.636C422.986 129.499 422.216 125.167 420.678 121.639C419.163 118.112 417.02 115.437 414.25 113.614C411.48 111.791 408.237 110.879 404.52 110.879C400.803 110.879 397.56 111.791 394.79 113.614C392.02 115.437 389.866 118.112 388.327 121.639C386.812 125.167 386.054 129.499 386.054 134.636C386.054 139.774 386.812 144.106 388.327 147.634C389.866 151.161 392.02 153.836 394.79 155.659C397.56 157.482 400.803 158.394 404.52 158.394C408.237 158.394 411.48 157.482 414.25 155.659C417.02 153.836 419.163 151.161 420.678 147.634C422.216 144.106 422.986 139.774 422.986 134.636Z" fill="white"/>
<path d="M306.118 171V98.2728H334.811C340.304 98.2728 344.991 99.2552 348.874 101.22C352.78 103.161 355.751 105.92 357.787 109.494C359.847 113.045 360.877 117.224 360.877 122.03C360.877 126.859 359.835 131.014 357.752 134.494C355.668 137.951 352.65 140.602 348.696 142.449C344.766 144.295 340.008 145.219 334.421 145.219H315.209V132.861H331.935C334.871 132.861 337.309 132.458 339.25 131.653C341.192 130.849 342.636 129.641 343.583 128.031C344.553 126.421 345.039 124.421 345.039 122.03C345.039 119.615 344.553 117.579 343.583 115.922C342.636 114.265 341.18 113.01 339.215 112.158C337.273 111.282 334.823 110.844 331.864 110.844H321.495V171H306.118ZM345.394 137.903L363.469 171H346.495L328.81 137.903H345.394Z" fill="white"/>
<path d="M236.551 110.95V98.2728H296.281V110.95H274.016V171H258.817V110.95H236.551Z" fill="white"/>
<path fill-rule="evenodd" clip-rule="evenodd" d="M403.768 192.867C390.312 192.155 378.328 186.181 367.349 177.761L374.651 168.239C384.535 175.819 394.233 180.345 404.402 180.883C414.489 181.417 425.938 178.071 439.452 168.162L446.548 177.838C431.425 188.929 417.306 193.583 403.768 192.867Z" fill="white"/>
<path d="M462.572 1L480.463 59.5938H481.127L499.018 1H520.658L493.666 81H467.924L440.932 1H462.572Z" fill="white"/>
<path d="M376.518 81V1H432.299V16.7031H395.854V33.1094H429.447V48.8516H395.854V65.2969H432.299V81H376.518Z" fill="white"/>
<path d="M313.891 81V1H333.227V65.2969H366.508V81H313.891Z" fill="white"/>
<path d="M246 81V1H301.781V16.7031H265.336V33.1094H298.93V48.8516H265.336V65.2969H301.781V81H246Z" fill="white"/>
<path d="M575.842 81L555.871 22.4062H555.129L535.158 81H511L541.132 1L569.868 1L600 81H575.842Z" fill="white"/>
</svg>
