<svg width="528" height="120" viewBox="0 0 528 120" fill="none" xmlns="http://www.w3.org/2000/svg">
<path d="M70 24H0V39H70V24Z" fill="#1DE9B6"/>
<path d="M70 52H0V67H70V52Z" fill="#1DE9B6"/>
<path d="M70 81H0V96H70V81Z" fill="#1DE9B6"/>
<path d="M87.6 83.7V24H99.1V83.7C99.1 84.7 99.3333 85.6667 99.8 86.6C100.333 87.4667 101.333 87.9 102.8 87.9H104.4V98.5H101.6C97.8 98.5 94.9 97.7667 92.9 96.3C90.9 94.8333 89.5 92.9667 88.7 90.7C87.9667 88.4333 87.6 86.1 87.6 83.7ZM154.037 95.1C150.57 96.5 147.303 97.5 144.237 98.1C141.17 98.7 138.27 99 135.537 99C128.003 99 122.303 96.8667 118.437 92.6C114.57 88.3333 112.637 82.6667 112.637 75.6V69.6C112.637 64.8667 113.503 60.7667 115.237 57.3C116.97 53.8333 119.437 51.1333 122.637 49.2C125.837 47.2667 129.603 46.3 133.937 46.3C137.47 46.3 140.77 47.0333 143.837 48.5C146.97 49.9 149.503 52.1333 151.437 55.2C153.437 58.2 154.437 62.0667 154.437 66.8C154.437 68.2 154.337 69.7 154.137 71.3C153.937 72.8333 153.603 74.4667 153.137 76.2H123.737C123.87 80.3333 124.903 83.4333 126.837 85.5C128.77 87.5667 131.87 88.6 136.137 88.6C138.403 88.6 140.737 88.3333 143.137 87.8C145.603 87.2667 148.137 86.4667 150.737 85.4L154.037 95.1ZM133.937 56C130.87 56 128.47 57 126.737 59C125.07 60.9333 124.103 63.7333 123.837 67.4H143.037C143.103 67.0667 143.137 66.7667 143.137 66.5C143.137 66.1667 143.137 65.8667 143.137 65.6C143.137 62.4 142.237 60 140.437 58.4C138.637 56.8 136.47 56 133.937 56ZM207.497 47.3L189.497 98H178.997L160.997 47.3H172.597L181.297 72.6L184.597 83.1L187.797 72.6L196.097 47.3H207.497ZM255.499 98.5C252.099 98.5 249.366 97.8 247.299 96.4C245.299 95 243.833 93.2667 242.899 91.2C240.033 93.8667 237.266 95.8333 234.599 97.1C231.933 98.3667 229.066 99 225.999 99C221.533 99 218.233 97.5667 216.099 94.7C214.033 91.8333 212.999 88.2 212.999 83.8C212.999 80.8667 213.533 78.3 214.599 76.1C215.733 73.8333 217.566 72.0667 220.099 70.8C222.633 69.5333 226.099 68.9 230.499 68.9C232.233 68.9 234.033 69.0333 235.899 69.3C237.766 69.5 239.633 69.7667 241.499 70.1V64.2C241.499 61.4 240.733 59.5 239.199 58.5C237.666 57.4333 235.599 56.9 232.999 56.9C230.999 56.9 228.799 57.1667 226.399 57.7C224.066 58.2333 221.533 59.0667 218.799 60.2L215.499 50.4C222.233 47.6667 228.333 46.3 233.799 46.3C238.733 46.3 242.533 47.1333 245.199 48.8C247.933 50.4667 249.833 52.6667 250.899 55.4C251.966 58.1333 252.499 61.0667 252.499 64.2V83.7C252.499 84.7 252.766 85.6667 253.299 86.6C253.899 87.4667 255.033 87.9 256.699 87.9H257.799V98.5H255.499ZM224.099 83.6C224.099 85.4 224.499 86.8333 225.299 87.9C226.099 88.9 227.266 89.4 228.799 89.4C230.333 89.4 232.066 89 233.999 88.2C235.933 87.4 238.433 85.5333 241.499 82.6V78.3C238.033 77.7 234.633 77.4 231.299 77.4C228.699 77.4 226.833 77.9333 225.699 79C224.633 80.0667 224.099 81.6 224.099 83.6ZM298.283 96.3C296.549 97.1 294.549 97.7333 292.283 98.2C290.016 98.7333 287.716 99 285.383 99C281.516 99 278.416 98.2 276.083 96.6C273.749 95 272.049 92.7667 270.983 89.9C269.983 87.0333 269.483 83.7667 269.483 80.1V57.3H261.283V47.3H269.483V34.1H280.983V47.3H296.783V57.3H280.983V80.1C280.983 83.1667 281.549 85.3 282.683 86.5C283.883 87.6333 285.583 88.2 287.783 88.2C288.849 88.2 289.983 88.1 291.183 87.9C292.449 87.6333 293.849 87.2 295.383 86.6L298.283 96.3ZM336.129 57.8C332.996 57.8 329.996 58.3 327.129 59.3C324.329 60.2333 321.629 61.7667 319.029 63.9V98H307.529V47.3H318.429V55.1C321.829 51.9 324.862 49.6333 327.529 48.3C330.196 46.9667 333.062 46.3 336.129 46.3V57.8ZM387.701 69.6V75.6C387.701 82.6667 385.767 88.3333 381.901 92.6C378.034 96.8667 372.567 99 365.501 99C358.434 99 352.967 96.8667 349.101 92.6C345.234 88.3333 343.301 82.6667 343.301 75.6V69.6C343.301 62.5333 345.201 56.9 349.001 52.7C352.867 48.4333 358.367 46.3 365.501 46.3C372.634 46.3 378.101 48.4333 381.901 52.7C385.767 56.9 387.701 62.5333 387.701 69.6ZM375.901 69.6C375.901 65.5333 375.001 62.3667 373.201 60.1C371.401 57.7667 368.834 56.6 365.501 56.6C362.167 56.6 359.601 57.7667 357.801 60.1C356.001 62.3667 355.101 65.5333 355.101 69.6V75.6C355.101 79.6667 356.001 82.8667 357.801 85.2C359.601 87.5333 362.167 88.7 365.501 88.7C368.834 88.7 371.401 87.5333 373.201 85.2C375.001 82.8667 375.901 79.6667 375.901 75.6V69.6ZM425.395 57C423.729 57 421.829 57.4 419.695 58.2C417.562 59 415.029 60.5667 412.095 62.9V98H400.595V47.3H411.495V54.1C414.629 51.3667 417.595 49.4 420.395 48.2C423.195 46.9333 426.029 46.3 428.895 46.3C433.762 46.3 437.462 47.8667 439.995 51C442.529 54.0667 443.795 58.4 443.795 64V98H432.295V65.4C432.295 59.8 429.995 57 425.395 57ZM470.794 37.7H458.694V25.8H470.794V37.7ZM470.494 98H458.994V47.3H470.494V98ZM513.138 98L502.638 81L492.338 98H480.338L496.738 72L481.438 47.3H493.838L503.238 62.4L512.338 47.3H524.338L509.038 71.5L525.538 98H513.138Z" fill="url(#paint0_linear_352_72)"/>
<defs>
<linearGradient id="paint0_linear_352_72" x1="80" y1="60" x2="528" y2="60" gradientUnits="userSpaceOnUse">
<stop stop-color="#1DE9B6"/>
<stop offset="1" stop-color="#4F90FF"/>
</linearGradient>
</defs>
</svg>
