<svg width="567" height="121" viewBox="0 0 567 121" fill="none" xmlns="http://www.w3.org/2000/svg">
<path d="M70 25H0V40H70V25Z" fill="#1DE9B6"/>
<path d="M70 53H0V68H70V53Z" fill="#1DE9B6"/>
<path d="M70 82H0V97H70V82Z" fill="#1DE9B6"/>
<path d="M101.165 24.2727V97H86.0369V24.2727H101.165ZM138.141 98.0653C132.53 98.0653 127.701 96.929 123.652 94.6562C119.628 92.3598 116.526 89.1165 114.348 84.9261C112.17 80.7121 111.081 75.7287 111.081 69.9759C111.081 64.3651 112.17 59.4408 114.348 55.2031C116.526 50.9654 119.592 47.6629 123.546 45.2955C127.523 42.928 132.187 41.7443 137.537 41.7443C141.136 41.7443 144.486 42.3243 147.587 43.4844C150.712 44.6207 153.435 46.3371 155.755 48.6335C158.098 50.9299 159.921 53.8182 161.223 57.2983C162.525 60.7547 163.176 64.803 163.176 69.4432V73.598H117.118V64.223H148.936C148.936 62.045 148.463 60.1155 147.516 58.4347C146.569 56.7538 145.255 55.4399 143.574 54.4929C141.917 53.5223 139.988 53.0369 137.786 53.0369C135.489 53.0369 133.453 53.5696 131.678 54.6349C129.926 55.6766 128.553 57.0852 127.559 58.8608C126.564 60.6127 126.055 62.5658 126.032 64.7202V73.6335C126.032 76.3324 126.529 78.6643 127.523 80.6293C128.541 82.5942 129.973 84.1094 131.82 85.1747C133.667 86.2401 135.856 86.7727 138.39 86.7727C140.07 86.7727 141.609 86.536 143.006 86.0625C144.403 85.589 145.598 84.8788 146.593 83.9318C147.587 82.9848 148.345 81.8248 148.865 80.4517L162.857 81.375C162.147 84.7367 160.691 87.6723 158.489 90.1818C156.311 92.6676 153.494 94.6089 150.037 96.0057C146.605 97.3788 142.639 98.0653 138.141 98.0653ZM222.436 42.4545L203.366 97H186.321L167.251 42.4545H183.232L194.56 81.4815H195.128L206.42 42.4545H222.436ZM244.267 98.0298C240.787 98.0298 237.685 97.4261 234.963 96.2188C232.24 94.9877 230.086 93.1766 228.5 90.7855C226.937 88.3707 226.156 85.3641 226.156 81.7656C226.156 78.7353 226.712 76.1903 227.825 74.1307C228.938 72.071 230.453 70.4138 232.37 69.1591C234.288 67.9044 236.466 66.9574 238.904 66.3182C241.367 65.679 243.947 65.2292 246.646 64.9688C249.818 64.6373 252.375 64.3295 254.316 64.0455C256.258 63.7377 257.666 63.2879 258.542 62.696C259.418 62.1042 259.856 61.2282 259.856 60.0682V59.8551C259.856 57.6061 259.146 55.866 257.725 54.6349C256.329 53.4039 254.34 52.7884 251.76 52.7884C249.037 52.7884 246.871 53.392 245.261 54.5994C243.651 55.7831 242.586 57.2746 242.065 59.0739L228.074 57.9375C228.784 54.6231 230.181 51.7585 232.264 49.3438C234.347 46.9053 237.034 45.035 240.325 43.733C243.639 42.4072 247.475 41.7443 251.831 41.7443C254.861 41.7443 257.761 42.0994 260.531 42.8097C263.324 43.5199 265.798 44.6207 267.953 46.1122C270.131 47.6037 271.847 49.5213 273.102 51.8651C274.357 54.1851 274.984 56.9669 274.984 60.2102V97H260.637V89.4361H260.211C259.335 91.1406 258.163 92.6439 256.696 93.946C255.228 95.2244 253.464 96.2306 251.404 96.9645C249.345 97.6747 246.966 98.0298 244.267 98.0298ZM248.599 87.5895C250.824 87.5895 252.789 87.1515 254.494 86.2756C256.199 85.3759 257.536 84.1686 258.507 82.6534C259.477 81.1383 259.963 79.4219 259.963 77.5043V71.7159C259.489 72.0237 258.838 72.3078 258.01 72.5682C257.205 72.8049 256.293 73.0298 255.275 73.2429C254.257 73.4323 253.239 73.6098 252.221 73.7756C251.203 73.9176 250.28 74.0478 249.451 74.1662C247.676 74.4266 246.125 74.8409 244.799 75.4091C243.474 75.9773 242.444 76.7467 241.71 77.7173C240.976 78.6643 240.609 79.848 240.609 81.2685C240.609 83.3281 241.355 84.9025 242.846 85.9915C244.361 87.0568 246.279 87.5895 248.599 87.5895ZM315.733 42.4545V53.8182H282.885V42.4545H315.733ZM290.343 29.3864H305.471V80.2386C305.471 81.6354 305.684 82.7244 306.11 83.5057C306.536 84.2633 307.128 84.7959 307.885 85.1037C308.667 85.4115 309.566 85.5653 310.584 85.5653C311.294 85.5653 312.005 85.5062 312.715 85.3878C313.425 85.2457 313.97 85.1392 314.348 85.0682L316.728 96.3253C315.97 96.562 314.905 96.8343 313.532 97.142C312.158 97.4735 310.489 97.6747 308.525 97.7457C304.879 97.8878 301.683 97.4025 298.936 96.2898C296.214 95.1771 294.095 93.4489 292.58 91.1051C291.065 88.7614 290.319 85.8021 290.343 82.2273V29.3864ZM325.588 97V42.4545H340.254V51.9716H340.822C341.816 48.5862 343.485 46.0294 345.829 44.3011C348.173 42.5492 350.872 41.6733 353.926 41.6733C354.683 41.6733 355.5 41.7206 356.376 41.8153C357.252 41.91 358.021 42.0402 358.684 42.206V55.6293C357.974 55.4162 356.992 55.2268 355.737 55.0611C354.482 54.8954 353.334 54.8125 352.292 54.8125C350.067 54.8125 348.078 55.2978 346.326 56.2685C344.598 57.2154 343.225 58.5412 342.207 60.2457C341.213 61.9503 340.716 63.9152 340.716 66.1406V97H325.588ZM388.612 98.0653C383.095 98.0653 378.325 96.8935 374.3 94.5497C370.299 92.1823 367.21 88.8916 365.032 84.6776C362.854 80.4399 361.765 75.5275 361.765 69.9403C361.765 64.3059 362.854 59.3816 365.032 55.1676C367.21 50.9299 370.299 47.6392 374.3 45.2955C378.325 42.928 383.095 41.7443 388.612 41.7443C394.128 41.7443 398.886 42.928 402.887 45.2955C406.912 47.6392 410.013 50.9299 412.191 55.1676C414.369 59.3816 415.458 64.3059 415.458 69.9403C415.458 75.5275 414.369 80.4399 412.191 84.6776C410.013 88.8916 406.912 92.1823 402.887 94.5497C398.886 96.8935 394.128 98.0653 388.612 98.0653ZM388.683 86.3466C391.192 86.3466 393.287 85.6364 394.968 84.2159C396.649 82.7718 397.915 80.8068 398.768 78.321C399.644 75.8352 400.082 73.0062 400.082 69.8338C400.082 66.6615 399.644 63.8324 398.768 61.3466C397.915 58.8608 396.649 56.8958 394.968 55.4517C393.287 54.0076 391.192 53.2855 388.683 53.2855C386.149 53.2855 384.019 54.0076 382.29 55.4517C380.586 56.8958 379.296 58.8608 378.42 61.3466C377.567 63.8324 377.141 66.6615 377.141 69.8338C377.141 73.0062 377.567 75.8352 378.42 78.321C379.296 80.8068 380.586 82.7718 382.29 84.2159C384.019 85.6364 386.149 86.3466 388.683 86.3466ZM440.423 65.4659V97H425.295V42.4545H439.712V52.0781H440.352C441.559 48.9058 443.583 46.3963 446.424 44.5497C449.265 42.6795 452.71 41.7443 456.758 41.7443C460.546 41.7443 463.848 42.5729 466.665 44.2301C469.483 45.8873 471.673 48.2547 473.235 51.3324C474.798 54.3864 475.579 58.0322 475.579 62.2699V97H460.451V64.9688C460.475 61.6307 459.622 59.0265 457.894 57.1562C456.166 55.2623 453.787 54.3153 450.756 54.3153C448.72 54.3153 446.921 54.7533 445.359 55.6293C443.82 56.5052 442.612 57.7836 441.737 59.4645C440.884 61.1217 440.446 63.1222 440.423 65.4659ZM487.502 97V42.4545H502.63V97H487.502ZM495.101 35.4233C492.852 35.4233 490.923 34.6776 489.313 33.1861C487.727 31.6709 486.934 29.8598 486.934 27.7528C486.934 25.6695 487.727 23.8821 489.313 22.3906C490.923 20.8755 492.852 20.1179 495.101 20.1179C497.35 20.1179 499.268 20.8755 500.854 22.3906C502.464 23.8821 503.269 25.6695 503.269 27.7528C503.269 29.8598 502.464 31.6709 500.854 33.1861C499.268 34.6776 497.35 35.4233 495.101 35.4233ZM527.39 42.4545L537.404 61.5241L547.667 42.4545H563.185L547.383 69.7273L563.612 97H548.164L537.404 78.1435L526.822 97H511.197L527.39 69.7273L511.765 42.4545H527.39Z" fill="url(#paint0_linear_352_72)"/>
<defs>
<linearGradient id="paint0_linear_352_72" x1="80" y1="60.5" x2="567" y2="60.5" gradientUnits="userSpaceOnUse">
<stop stop-color="#1DE9B6"/>
<stop offset="1" stop-color="#4F90FF"/>
</linearGradient>
</defs>
</svg>
